PathFileType  4	(X/Y/Z) C:\Users\antoi\Documents\MyRepositories\mobilecap\ResultsAnalysis
DataRate	CameraRate	NumFrames	NumMarkers	Units	OrigDataRate	OrigDataStartFrame	OrigNumFrames
100.0	100.0	7	51	mm	100.0	161	256
Frame#	Time	r_knee			r_shank_antsup			r_ankle			r_calc			r_5meta			r_toe			L_knee			L_shank_antsup			L_ankle			L_calc			L_5meta			L_toe			r_sh2			r_sh3			r_sh4			L_sh2			L_sh3			r_thigh1			r_thigh2			r_thigh3			r_thigh4			r_thigh5			L_thigh1			L_thigh2			L_thigh3			L_thigh4			r.ASIS			r.PSIS			L.ASIS			L.PSIS			C7			R_Shoulder			L_Shoulder			R_Sternum			L_Sternum			R_humerus			R_elbow_med			R_elbow_lat			R_forearm			R_wrist_radius			R_wrist_ulna			L_humerus			L_elbow_med			L_elbow_lat			L_forearm			L_wrist_radius			L_wrist_ulna			R_HJC			L_HJC			R_HJC_reg			L_HJC_reg			
		X1	Y1	Z1	X2	Y2	Z2	X3	Y3	Z3	X4	Y4	Z4	X5	Y5	Z5	X6	Y6	Z6	X7	Y7	Z7	X8	Y8	Z8	X9	Y9	Z9	X10	Y10	Z10	X11	Y11	Z11	X12	Y12	Z12	X13	Y13	Z13	X14	Y14	Z14	X15	Y15	Z15	X16	Y16	Z16	X17	Y17	Z17	X18	Y18	Z18	X19	Y19	Z19	X20	Y20	Z20	X21	Y21	Z21	X22	Y22	Z22	X23	Y23	Z23	X24	Y24	Z24	X25	Y25	Z25	X26	Y26	Z26	X27	Y27	Z27	X28	Y28	Z28	X29	Y29	Z29	X30	Y30	Z30	X31	Y31	Z31	X32	Y32	Z32	X33	Y33	Z33	X34	Y34	Z34	X35	Y35	Z35	X36	Y36	Z36	X37	Y37	Z37	X38	Y38	Z38	X39	Y39	Z39	X40	Y40	Z40	X41	Y41	Z41	X42	Y42	Z42	X43	Y43	Z43	X44	Y44	Z44	X45	Y45	Z45	X46	Y46	Z46	X47	Y47	Z47	X48	Y48	Z48	X49	Y49	Z49	X50	Y50	Z50	X51	Y51	Z51	

161	1.60000000	-33.36882	393.33501	-408.97259	-29.68057	297.06731	-405.55973	-292.03920	103.66789	-396.76127	-365.24711	68.57778	-443.47756	-196.22658	45.18234	-334.73480	-152.87626	67.53725	-386.68792	-13.77575	417.36793	-750.12603	9.82527	323.68909	-736.92879	-234.19044	99.25959	-741.09591	-317.30071	56.10217	-689.32831	-147.92200	41.05312	-790.93917	-92.61938	61.86086	-739.21246	-110.16304	213.70734	-403.90621	-80.84952	345.98861	-375.53368	-163.23306	269.52967	-364.57271	-48.54939	380.28073	-778.05296	-121.75713	282.83749	-785.67294	-254.91992	539.69548	-396.51434	-154.78381	505.89194	-411.75489	-145.13615	445.71250	-378.64494	-291.37577	433.41832	-381.58663	-179.53584	401.01707	-395.08689	-211.35052	565.44204	-746.70972	-78.25610	530.44807	-725.34090	-234.75817	471.38276	-796.49890	-109.03694	433.99106	-767.44698	-257.82139	571.03667	-451.69387	-432.34737	668.26217	-536.51863	-246.95660	581.53960	-704.12572	-425.60052	673.32727	-631.36986	-94.76876	1018.68092	-572.17708	-52.34566	935.80227	-400.97718	-28.68545	934.90939	-707.91051	-29.84118	882.53865	-536.84050	-25.18934	884.37028	-581.36416	-102.13536	814.02943	-336.99868	-274.94077	681.73560	-358.47826	-278.44802	704.05177	-291.27962	-199.58586	657.73246	-266.67489	-70.98050	563.14730	-288.16842	-99.53050	532.86742	-261.59913	-85.13470	819.35012	-792.51957	-252.17161	688.35259	-794.75304	-237.14852	718.13128	-869.74733	-170.66991	676.11320	-877.66027	-49.90649	560.81565	-860.60622	-82.82256	537.83920	-892.66729	-360.87910	515.18479	-484.36882	-350.18569	523.54680	-673.44441	-349.78855	521.14761	-496.67022	-337.96239	530.01963	-662.91717	
162	1.61000000	-31.79935	392.98378	-411.02027	-28.35954	296.76161	-407.36216	-291.45559	104.33688	-397.36481	-364.83681	69.28850	-443.96103	-195.99567	45.35626	-335.06405	-152.59694	67.57526	-386.80388	-12.90720	417.41816	-749.07571	10.54775	323.67988	-735.42749	-234.00394	99.54340	-741.60180	-317.21885	56.89631	-690.37091	-147.79182	40.98953	-791.02652	-92.47625	61.86281	-739.26207	-109.14823	213.47526	-405.78103	-79.24785	346.36759	-377.32580	-161.77017	269.97098	-366.61619	-47.99976	380.66360	-777.32013	-121.09230	282.95900	-784.74112	-253.43920	537.40277	-396.72542	-153.41081	504.02693	-412.65100	-143.32773	443.80110	-380.03314	-289.71851	430.75953	-383.15686	-177.69984	398.83046	-396.89297	-209.97754	565.49517	-745.79133	-76.70678	530.03265	-723.49632	-232.90040	471.36350	-795.38341	-107.76507	433.80962	-766.38456	-256.22316	568.38026	-451.24623	-430.50830	666.91166	-535.91427	-245.15384	580.24556	-703.00036	-423.78049	672.49784	-631.15178	-94.80862	1013.36897	-572.77901	-46.87190	931.26679	-402.73087	-26.28916	929.67850	-708.86796	-27.52873	878.85897	-538.59548	-22.98586	880.75762	-582.79573	-88.65833	804.48154	-342.26634	-256.05658	664.89612	-360.38696	-256.16831	683.07598	-293.21928	-174.37941	642.44156	-273.05362	-41.78038	556.63463	-301.88703	-67.17956	523.92707	-274.80981	-74.80697	807.97120	-788.69243	-231.39551	664.50067	-789.72567	-216.00837	692.34577	-865.26845	-146.40543	656.00919	-869.24037	-16.47412	552.78586	-842.10979	-46.36391	526.09227	-875.52632	-359.77331	513.28364	-484.32561	-348.58443	522.48317	-673.33400	-348.22663	519.33577	-496.30657	-336.51470	529.06158	-662.11207	
163	1.62000000	-30.25810	392.15787	-413.26614	-27.21867	296.94172	-408.71953	-290.89629	105.01905	-397.84009	-364.44591	70.03778	-444.24085	-195.80095	45.49643	-335.30222	-152.33587	67.63844	-386.82304	-11.94370	417.81326	-748.29902	11.40252	323.63073	-734.14378	-233.79539	99.88183	-742.11445	-317.16596	57.06437	-690.44303	-147.64557	40.93569	-791.11473	-92.29470	61.86470	-739.32501	-108.07331	213.71759	-407.08246	-77.91459	346.57180	-379.40646	-161.10077	269.44932	-369.38704	-47.00873	380.61626	-776.35019	-120.10692	283.06381	-784.22501	-251.92283	535.89355	-396.61965	-151.78132	502.66593	-414.04685	-141.80763	442.27622	-381.25794	-288.19400	429.01581	-384.26712	-176.28929	397.26680	-398.70021	-208.67935	565.75241	-744.74658	-75.15285	529.61558	-721.57141	-231.19076	471.87972	-794.60394	-106.37773	433.70729	-765.13235	-254.64185	566.18350	-450.96004	-428.96286	666.20953	-535.64529	-243.57418	579.68255	-702.59643	-421.99376	672.08288	-631.07224	-93.25051	1010.08574	-572.92375	-41.90355	927.98582	-404.92899	-24.38973	925.65930	-710.02483	-25.59217	875.93049	-540.20322	-21.30934	877.93200	-584.49390	-75.19757	797.49603	-347.91139	-236.39794	649.89249	-362.15452	-232.42022	664.62479	-295.29143	-147.87666	629.84646	-280.05616	-11.69227	553.93711	-316.53487	-33.43073	518.85072	-289.07202	-63.69151	798.39618	-784.36394	-209.68920	642.87900	-784.61611	-191.85261	668.73296	-860.31023	-119.83916	638.53840	-860.08287	17.31906	548.48724	-822.74794	-8.74317	518.32235	-857.73764	-358.70894	511.88358	-484.67959	-347.14076	522.04145	-673.61599	-347.14748	518.22117	-496.35571	-335.04308	528.42494	-662.08155	
164	1.63000000	-28.77688	391.45715	-415.26695	-26.12785	296.97723	-410.25603	-290.53258	105.57768	-398.06490	-364.12267	70.73421	-444.27162	-195.63820	45.58481	-335.44268	-152.10860	67.65968	-386.84811	-10.75501	417.99248	-747.06805	12.34332	323.62730	-733.13591	-233.58333	100.25093	-742.57928	-317.10620	56.83215	-689.78162	-147.52519	40.90989	-791.17308	-92.11988	61.86364	-739.42370	-107.08596	213.92029	-407.98212	-76.64698	346.60367	-381.26130	-160.26815	269.44598	-370.86734	-45.62820	380.17587	-774.90506	-118.81775	283.15938	-784.01475	-250.20493	534.76839	-396.97782	-150.37851	501.75992	-415.25279	-140.38536	440.59299	-383.45508	-286.74773	428.09907	-384.97330	-175.05876	396.09557	-400.37492	-207.26432	566.22408	-743.56078	-73.76685	529.32424	-719.86458	-229.70487	472.91161	-794.38980	-104.99520	433.95022	-764.23802	-252.99507	564.50795	-450.99183	-427.58649	665.92157	-535.62745	-242.26435	579.79594	-702.96503	-420.28949	672.27327	-631.10841	-92.73133	1007.29131	-573.32615	-37.46481	925.97155	-407.51682	-22.66949	922.76319	-711.31848	-24.06606	873.84084	-541.92692	-19.90231	875.97548	-586.20210	-62.24266	793.43515	-353.50364	-214.74592	635.84725	-364.22233	-207.78408	648.84473	-297.35760	-120.54015	619.97373	-287.38896	18.96456	555.41958	-331.92946	1.26781	518.12098	-304.28453	-51.89457	791.04062	-779.95993	-185.58232	625.32249	-778.29955	-165.01126	648.33999	-854.63974	-90.97275	624.67845	-849.77011	50.93460	548.44722	-802.61462	29.19480	514.43742	-837.49937	-357.58127	510.95675	-485.46144	-345.88621	522.22901	-674.32588	-346.21773	517.23581	-497.02072	-333.53790	528.27020	-662.93023	
165	1.64000000	-27.48772	391.38827	-416.66217	-25.00994	296.63012	-411.83625	-290.29989	105.96819	-398.06597	-363.88777	71.27649	-444.21483	-195.49573	45.66485	-335.53250	-151.91988	67.62153	-386.90797	-9.54222	418.00753	-745.84999	13.29867	323.90330	-731.90058	-233.32252	100.69872	-743.08288	-317.01334	57.04240	-689.52985	-147.40099	40.93411	-791.23065	-91.92125	61.89711	-739.53473	-106.20804	213.74164	-408.84780	-75.35449	346.49734	-382.64082	-158.75638	270.34969	-370.87044	-44.29448	379.96987	-773.78817	-117.44220	283.12704	-783.75826	-248.50304	534.20592	-397.75738	-149.41331	500.98349	-415.60774	-138.89693	439.03428	-386.02124	-285.33641	427.91687	-385.39913	-173.88715	395.45944	-401.62849	-205.70581	566.92748	-742.46080	-72.68280	529.37472	-718.85855	-228.37491	474.19304	-794.33259	-103.74781	434.54944	-763.71729	-251.38936	563.70065	-450.94385	-426.31172	665.95285	-535.75495	-240.93981	580.33381	-703.19577	-418.72010	673.08514	-631.24637	-92.20848	1005.58027	-574.63976	-33.59475	925.27677	-410.25841	-20.87092	920.89134	-712.67189	-22.98747	872.81760	-543.77590	-18.76262	874.86109	-587.87359	-49.95403	792.05293	-358.69700	-190.69727	623.20790	-367.20512	-181.60728	635.56041	-300.22199	-92.30528	613.21854	-294.88586	49.73046	561.33463	-347.91353	36.38238	522.05263	-320.38007	-39.69871	786.20329	-775.68351	-158.66866	611.45365	-770.61238	-136.02255	631.62252	-847.36169	-60.58869	615.13798	-838.23136	83.91999	553.03916	-781.34592	66.94994	515.61933	-815.49183	-356.44356	510.69348	-486.11697	-344.55699	522.84241	-674.91579	-345.06807	516.30533	-497.76050	-331.87183	528.70147	-663.76458	
166	1.65000000	-26.40654	391.59016	-417.69195	-24.03119	296.08678	-413.20261	-290.14187	106.19020	-397.95979	-363.74907	71.61714	-444.13547	-195.39815	45.76133	-335.56706	-151.76483	67.58130	-386.95417	-8.64517	418.05808	-744.95911	14.09981	324.27744	-730.64829	-233.04391	101.10813	-743.53803	-316.87867	58.16699	-690.39344	-147.23407	40.99093	-791.35781	-91.68390	61.95827	-739.60653	-105.41898	213.29717	-409.78401	-74.09113	346.02786	-383.77785	-157.09837	270.96827	-370.73765	-43.28227	380.11776	-773.47689	-116.23194	282.93889	-783.41455	-247.01137	534.64021	-398.38360	-148.16613	500.36201	-416.01756	-137.54489	438.68695	-387.03421	-284.06969	428.62632	-385.39835	-172.79820	395.58366	-402.31095	-204.22972	567.73024	-741.51736	-71.76510	529.72660	-718.37746	-227.18099	475.48846	-794.09500	-102.71489	435.27926	-763.35352	-249.94374	563.86491	-450.55417	-425.12637	666.45533	-535.98050	-239.47564	581.10108	-702.88654	-417.40020	674.32186	-631.26448	-90.11784	1005.75817	-576.31597	-30.46114	925.99629	-413.01888	-18.84411	920.02264	-713.94069	-22.22774	872.80055	-545.43532	-17.88460	874.57032	-589.51093	-38.14083	792.89112	-363.23469	-164.43007	613.27290	-371.16034	-153.37317	625.04302	-304.18496	-62.99917	610.08771	-302.87940	80.05480	571.90171	-364.38737	71.44347	530.88521	-337.34602	-27.20413	783.92001	-771.21795	-130.46548	600.71265	-762.45115	-105.65530	618.92266	-838.30279	-29.97253	610.14629	-825.58629	115.77507	562.80273	-759.33467	104.15863	523.01996	-793.26966	-355.37729	511.18377	-486.27800	-343.12828	523.72135	-675.02887	-343.69321	515.89311	-497.97950	-330.23666	529.59767	-663.94196	
167	1.66000000	-25.48722	391.47830	-418.74729	-23.43415	295.35857	-414.69428	-290.08576	106.29469	-397.75432	-363.74196	71.77400	-443.91131	-195.35317	45.79236	-335.55710	-151.67811	67.59361	-386.95009	-8.15497	418.20460	-744.04222	14.64552	324.49939	-730.08658	-232.82755	101.33776	-743.83430	-316.71328	59.69679	-691.78819	-147.06398	41.01980	-791.52613	-91.47951	61.99630	-739.63960	-104.81668	212.81509	-410.60636	-73.03705	345.30079	-384.69863	-155.81860	270.74937	-370.68683	-42.55383	380.31364	-773.46123	-115.33646	282.88263	-783.33992	-245.45672	536.07851	-398.83727	-145.72240	500.43746	-417.73610	-136.39478	439.78262	-386.63038	-282.93581	430.25337	-385.03647	-171.85842	396.48335	-402.43538	-202.91930	568.58008	-740.57760	-70.73154	530.38189	-717.98031	-226.20946	476.80614	-793.87545	-101.92367	436.07135	-763.20191	-248.54978	564.34761	-450.51431	-423.95048	667.50955	-536.15972	-238.05708	582.03148	-702.21421	-416.34864	675.83270	-631.11819	-86.99763	1007.37355	-577.44584	-28.15197	928.05295	-415.78805	-16.57535	920.11315	-714.82064	-21.58855	873.53304	-546.74668	-17.12100	875.10121	-590.96259	-26.73129	795.90544	-367.10559	-136.60377	606.88527	-375.13109	-123.83213	618.05099	-308.21562	-32.87423	611.13290	-311.42402	109.34766	587.28214	-381.04000	105.92542	544.96988	-354.75410	-14.43043	784.17022	-766.41412	-102.33287	593.68807	-754.23429	-74.75021	610.74875	-828.59972	0.00258	609.63215	-812.21168	145.93582	578.15223	-737.51084	140.13849	536.58241	-770.92537	-354.41850	512.06330	-486.31679	-341.89606	524.88613	-675.02999	-342.21348	516.42164	-497.98235	-328.96202	530.92904	-663.49655	
